<svg xmlns="http://www.w3.org/2000/svg" width="89" height="68"><g fill="#FEFEFE" fill-rule="evenodd"><path d="M59.725 45.72c-.376.067-.901.028-1.37-.043-3.233-.49-5.684-2.567-5.684-2.567l-11.99-8.339 14.762-.025 3.27.043h.343c.086-.004.175 0 .265 0 3.04 0 5.505 2.467 5.505 5.485 0 2.879-2.25 5.24-5.1 5.445m.08-22.735c-.376-.067-.902-.025-1.374.046-3.234.487-5.68 2.563-5.68 2.563l-11.99 8.34 14.758.024 3.27-.042h.347c.086.003.171 0 .264 0 3.037 0 5.502-2.468 5.502-5.482 0-2.882-2.247-5.243-5.097-5.449M.391 44.264h4.15V30.23h.057l4.94 14.034h3.412l4.94-14.172h.053v14.172h4.146V24.266h-6.235l-4.456 13.753h-.054L6.63 24.266H.391z"/><path d="M28.947 44.264h4.432v-7.676l7.476-12.322h-4.936l-4.682 7.899-4.715-7.899h-4.993l7.418 12.212zM6.431 67.101h4.428V50.803h6.042v-3.699H.393v3.699h6.038z"/><path d="M34.058 47.105h-4.432V59.54c0 2.968-1.016 4.342-4.174 4.342-3.584 0-4.15-2.158-4.15-4.342V47.105h-4.431V59.54c0 5.432 3.162 8.037 8.58 8.037 5.391 0 8.607-2.634 8.607-8.037V47.105zm1.55 19.996h4.429v-7.813h4.432c2.232 0 3.047.926 3.359 3.024.225 1.598.168 3.529.704 4.79h4.432c-.79-1.12-.762-3.473-.848-4.733-.143-2.016-.762-4.118-2.933-4.675v-.06c2.229-.895 3.187-2.66 3.187-5.013 0-3.025-2.285-5.517-5.898-5.517H35.609V67.1zm4.429-16.578h4.857c1.971 0 3.044.837 3.044 2.772 0 2.017-1.073 2.858-3.044 2.858h-4.857v-5.63z"/><path d="M35.609 67.101h4.428v-7.813h4.432c2.232 0 3.047.926 3.359 3.024.225 1.598.168 3.529.704 4.79h4.432c-.79-1.12-.762-3.473-.848-4.733-.143-2.016-.762-4.118-2.933-4.675v-.06c2.229-.895 3.187-2.66 3.187-5.013 0-3.025-2.285-5.517-5.898-5.517H35.609V67.1zm4.428-16.578h4.857c1.971 0 3.044.837 3.044 2.772 0 2.017-1.073 2.858-3.044 2.858h-4.857v-5.63zM53.724 67.101h4.428v-6.44l2.54-2.549 6.07 8.989h5.558l-8.634-12.098 7.873-7.899h-5.534l-7.873 8.293v-8.293h-4.428z"/><path d="M88.941 47.105H84.51V59.54c0 2.968-1.016 4.342-4.175 4.342-3.584 0-4.149-2.158-4.149-4.342V47.105h-4.432V59.54c0 5.432 3.162 8.037 8.581 8.037 5.39 0 8.606-2.634 8.606-8.037V47.105zM.391 21.436h4.547v-6.603l2.6-2.612 6.22 9.215h5.698L10.604 9.033 18.677.935h-5.673L4.938 9.434V.935H.391z"/><path d="M19.356 21.436h4.543V.935h-4.543zM24.662 14.631c-.061 5.052 4.224 7.292 8.795 7.292 5.612 0 8.592-2.812 8.592-6.575 0-4.65-4.632-5.598-6.134-5.971-5.18-1.32-6.16-1.523-6.16-3.103 0-1.721 1.678-2.325 3.123-2.325 2.167 0 3.934.632 4.081 3.103h4.396c0-4.74-3.963-6.607-8.273-6.607-3.731 0-7.727 2.013-7.727 6.202 0 3.848 3.098 5.027 6.164 5.833 3.036.802 6.134 1.175 6.134 3.386 0 2.095-2.432 2.556-4.024 2.556-2.429 0-4.571-1.061-4.571-3.791h-4.396zm17.426 0c-.057 5.052 4.225 7.292 8.796 7.292 5.612 0 8.592-2.812 8.592-6.575 0-4.65-4.629-5.598-6.135-5.971-5.175-1.32-6.16-1.523-6.16-3.103 0-1.721 1.678-2.325 3.124-2.325 2.17 0 3.934.632 4.08 3.103h4.397c0-4.74-3.96-6.607-8.274-6.607-3.73 0-7.726 2.013-7.726 6.202 0 3.848 3.098 5.027 6.163 5.833 3.04.802 6.135 1.175 6.135 3.386 0 2.095-2.433 2.556-4.02 2.556-2.433 0-4.576-1.061-4.576-3.791h-4.396z"/></g></svg>